<svg width="500" height="500" viewBox="0 0 500 500" fill="none" xmlns="http://www.w3.org/2000/svg">
<g id="brackets">
<rect width="500" height="500" fill="white"/>
<g id="right_bracket" opacity="0.8">
<rect id="Rectangle 1" x="198" width="100" height="40" fill="#2551EC"/>
<rect id="Rectangle 2" x="258" y="40" width="40" height="312" fill="#2551EC"/>
<rect id="Rectangle 3" x="198" y="352" width="100" height="40" fill="#2551EC"/>
</g>
<g id="left_bracket" opacity="0.8">
<rect id="Rectangle 1_2" width="100" height="40" transform="matrix(-1 0 0 1 310 108)" fill="#2551EC"/>
<rect id="Rectangle 2_2" width="40" height="312" transform="matrix(-1 0 0 1 250 148)" fill="#2551EC"/>
<rect id="Rectangle 3_2" width="100" height="40" transform="matrix(-1 0 0 1 310 460)" fill="#2551EC"/>
</g>
<g id="stars">
<path id="Star 1" opacity="0.8" d="M353 146L364.226 180.549H400.553L371.164 201.902L382.389 236.451L353 215.098L323.611 236.451L334.836 201.902L305.447 180.549H341.774L353 146Z" fill="#2551EC"/>
<path id="Star 2" opacity="0.8" d="M450 146L461.226 180.549H497.553L468.164 201.902L479.389 236.451L450 215.098L420.611 236.451L431.836 201.902L402.447 180.549H438.774L450 146Z" fill="#2551EC"/>
</g>
</g>
</svg>
